<svg xmlns="http://www.w3.org/2000/svg" xmlns:xlink="http://www.w3.org/1999/xlink" width="80" zoomAndPan="magnify" viewBox="0 0 60 39.749999" height="53" preserveAspectRatio="xMidYMid meet" version="1.0"><defs><filter x="0%" y="0%" width="100%" height="100%" id="861bfb14ed"><feColorMatrix values="0 0 0 0 1 0 0 0 0 1 0 0 0 0 1 0 0 0 1 0" color-interpolation-filters="sRGB"/></filter><g/><mask id="76dcac3c4b"><g filter="url(#861bfb14ed)"><rect x="-6" width="72" fill="#000000" y="-3.975" height="47.699999" fill-opacity="0.78"/></g></mask><clipPath id="a01a889321"><path d="M 0.46875 0.722656 L 21.695312 0.722656 L 21.695312 28.867188 L 0.46875 28.867188 Z M 0.46875 0.722656 " clip-rule="nonzero"/></clipPath><clipPath id="cf1c0dcdf6"><path d="M 0.46875 6 L 21.695312 6 L 21.695312 22 L 0.46875 22 Z M 0.46875 6 " clip-rule="nonzero"/></clipPath><clipPath id="fca0e653c1"><rect x="0" width="22" y="0" height="29"/></clipPath><clipPath id="f9e0f0d093"><rect x="0" width="22" y="0" height="29"/></clipPath><clipPath id="1c3539c899"><path d="M 18 0 L 39 0 L 39 39.5 L 18 39.5 Z M 18 0 " clip-rule="nonzero"/></clipPath><mask id="c42831bed5"><g filter="url(#861bfb14ed)"><rect x="-6" width="72" fill="#000000" y="-3.975" height="47.699999" fill-opacity="0.78"/></g></mask><clipPath id="8fd98a7bfe"><path d="M 0.0742188 0 L 20.109375 0 L 20.109375 39.5 L 0.0742188 39.5 Z M 0.0742188 0 " clip-rule="nonzero"/></clipPath><clipPath id="378a2c1c5b"><rect x="0" width="21" y="0" height="40"/></clipPath><clipPath id="128e34b018"><rect x="0" width="21" y="0" height="40"/></clipPath><mask id="d42d83be07"><g filter="url(#861bfb14ed)"><rect x="-6" width="72" fill="#000000" y="-3.975" height="47.699999" fill-opacity="0.78"/></g></mask><clipPath id="1930dec873"><path d="M 0.257812 0.246094 L 16.714844 0.246094 L 16.714844 29.582031 L 0.257812 29.582031 Z M 0.257812 0.246094 " clip-rule="nonzero"/></clipPath><clipPath id="79b44f2938"><path d="M 0.257812 5 L 16.714844 5 L 16.714844 22 L 0.257812 22 Z M 0.257812 5 " clip-rule="nonzero"/></clipPath><clipPath id="d7f42b9c16"><rect x="0" width="17" y="0" height="30"/></clipPath><clipPath id="09e477bc25"><rect x="0" width="17" y="0" height="30"/></clipPath><clipPath id="89ca1af3b0"><path d="M 0.1875 28 L 59.8125 28 L 59.8125 37 L 0.1875 37 Z M 0.1875 28 " clip-rule="nonzero"/></clipPath><clipPath id="9f7675a649"><path d="M 0.1875 1 L 7 1 L 7 8 L 0.1875 8 Z M 0.1875 1 " clip-rule="nonzero"/></clipPath><clipPath id="d8b2b62656"><path d="M 35 0.144531 L 43 0.144531 L 43 8 L 35 8 Z M 35 0.144531 " clip-rule="nonzero"/></clipPath><clipPath id="f0df7c19db"><rect x="0" width="60" y="0" height="9"/></clipPath></defs><g mask="url(#76dcac3c4b)"><g transform="matrix(1, 0, 0, 1, 25, 5)"><g clip-path="url(#f9e0f0d093)"><g clip-path="url(#a01a889321)"><g><g clip-path="url(#fca0e653c1)"><g clip-path="url(#cf1c0dcdf6)"><g fill="#000000" fill-opacity="1"><g transform="translate(0.96587, 20.890557)"><g><path d="M 16.40625 -14.4375 L 20.46875 -14.4375 L 20.46875 -14.234375 L 20.3125 -14.234375 C 19.957031 -14.234375 19.601562 -14.125 19.25 -13.90625 C 18.894531 -13.695312 18.644531 -13.378906 18.5 -12.953125 L 15.078125 -2.046875 C 14.796875 -1.179688 14.644531 -0.414062 14.625 0.25 L 14.4375 0.25 L 10.21875 -11.546875 L 7.09375 -2.046875 C 6.832031 -1.191406 6.6875 -0.425781 6.65625 0.25 L 6.46875 0.25 L 1.796875 -12.96875 C 1.628906 -13.382812 1.375 -13.695312 1.03125 -13.90625 C 0.6875 -14.125 0.332031 -14.234375 -0.03125 -14.234375 L -0.1875 -14.234375 L -0.1875 -14.4375 L 4.390625 -14.4375 L 4.390625 -14.234375 L 4.203125 -14.234375 C 3.910156 -14.234375 3.691406 -14.140625 3.546875 -13.953125 C 3.410156 -13.765625 3.34375 -13.585938 3.34375 -13.421875 C 3.34375 -13.253906 3.359375 -13.101562 3.390625 -12.96875 L 6.53125 -2.921875 L 10.375 -14.765625 L 10.5625 -14.75 L 14.625 -3.34375 L 17.375 -13 C 17.414062 -13.144531 17.4375 -13.296875 17.4375 -13.453125 C 17.4375 -13.609375 17.367188 -13.773438 17.234375 -13.953125 C 17.097656 -14.140625 16.882812 -14.234375 16.59375 -14.234375 L 16.40625 -14.234375 Z M 16.40625 -14.4375 "/></g></g></g></g></g></g></g></g></g></g><g clip-path="url(#1c3539c899)"><g mask="url(#c42831bed5)"><g transform="matrix(1, 0, 0, 1, 18, 0)"><g clip-path="url(#128e34b018)"><g clip-path="url(#8fd98a7bfe)"><g><g clip-path="url(#378a2c1c5b)"><g fill="#ffbf00" fill-opacity="1"><g transform="translate(0.244929, 28.897994)"><g><path d="M 2.546875 -0.34375 C 3.160156 -0.34375 3.679688 -0.554688 4.109375 -0.984375 C 4.535156 -1.421875 4.765625 -1.941406 4.796875 -2.546875 L 4.796875 -21.921875 C 4.765625 -22.523438 4.535156 -23.039062 4.109375 -23.46875 C 3.679688 -23.90625 3.160156 -24.125 2.546875 -24.125 L 2.09375 -24.125 L 2.09375 -24.484375 L 9.75 -24.484375 L 9.75 -24.125 L 9.296875 -24.125 C 8.460938 -24.125 7.820312 -23.765625 7.375 -23.046875 C 7.164062 -22.691406 7.0625 -22.316406 7.0625 -21.921875 L 7.0625 -1.078125 L 12.0625 -1.078125 C 13.789062 -1.078125 15.109375 -1.460938 16.015625 -2.234375 C 16.921875 -3.003906 17.675781 -4.148438 18.28125 -5.671875 L 18.640625 -5.671875 L 16.609375 0 L 2.09375 0 L 2.09375 -0.34375 Z M 2.546875 -0.34375 "/></g></g></g></g></g></g></g></g></g></g><g mask="url(#d42d83be07)"><g transform="matrix(1, 0, 0, 1, 14, 5)"><g clip-path="url(#09e477bc25)"><g clip-path="url(#1930dec873)"><g><g clip-path="url(#d7f42b9c16)"><g clip-path="url(#79b44f2938)"><g fill="#000000" fill-opacity="1"><g transform="translate(0.745782, 21.34881)"><g><path d="M 15.453125 -0.21875 L 15.625 -0.21875 L 15.625 0 L 10.765625 0 L 10.765625 -0.21875 L 10.96875 -0.21875 C 11.269531 -0.21875 11.492188 -0.3125 11.640625 -0.5 C 11.796875 -0.695312 11.875 -0.878906 11.875 -1.046875 C 11.875 -1.222656 11.84375 -1.398438 11.78125 -1.578125 L 10.40625 -5.25 L 4.578125 -5.25 L 3.125 -1.5625 C 3.0625 -1.382812 3.03125 -1.210938 3.03125 -1.046875 C 3.03125 -0.878906 3.109375 -0.695312 3.265625 -0.5 C 3.421875 -0.3125 3.648438 -0.21875 3.953125 -0.21875 L 4.140625 -0.21875 L 4.140625 0 L -0.203125 0 L -0.203125 -0.21875 L 0 -0.21875 C 0.351562 -0.21875 0.703125 -0.332031 1.046875 -0.5625 C 1.398438 -0.789062 1.679688 -1.128906 1.890625 -1.578125 L 6.78125 -13.1875 C 7.3125 -14.351562 7.578125 -15.097656 7.578125 -15.421875 L 7.765625 -15.421875 L 13.5625 -1.578125 C 13.757812 -1.128906 14.03125 -0.789062 14.375 -0.5625 C 14.71875 -0.332031 15.078125 -0.21875 15.453125 -0.21875 Z M 4.828125 -5.890625 L 10.140625 -5.890625 L 7.546875 -12.828125 Z M 4.828125 -5.890625 "/></g></g></g></g></g></g></g></g></g></g><g clip-path="url(#89ca1af3b0)"><g transform="matrix(1, 0, 0, 1, -0.000000000000000028, 28)"><g clip-path="url(#f0df7c19db)"><g clip-path="url(#9f7675a649)"><g fill="#000000" fill-opacity="1"><g transform="translate(0.855176, 6.234687)"><g><path d="M 5.765625 1.09375 C 5.328125 1.3125 4.882812 1.347656 4.4375 1.203125 C 3.96875 1.046875 3.5625 0.722656 3.21875 0.234375 C 3.03125 -0.0234375 2.875 -0.332031 2.75 -0.6875 L 2.546875 -1.1875 L 1.140625 -1.1875 L 0.828125 -0.4375 C 0.804688 -0.382812 0.796875 -0.34375 0.796875 -0.3125 C 0.796875 -0.28125 0.800781 -0.242188 0.8125 -0.203125 C 0.832031 -0.171875 0.863281 -0.140625 0.90625 -0.109375 C 0.957031 -0.078125 1.007812 -0.0625 1.0625 -0.0625 L 1.109375 -0.0625 L 1.109375 0 L -0.171875 0 L -0.171875 -0.0625 L -0.109375 -0.0625 C -0.015625 -0.0625 0.0703125 -0.0859375 0.15625 -0.140625 C 0.25 -0.191406 0.320312 -0.269531 0.375 -0.375 L 1.71875 -3.421875 C 1.5625 -3.773438 1.394531 -4.015625 1.21875 -4.140625 C 1.070312 -4.253906 0.929688 -4.3125 0.796875 -4.3125 C 0.660156 -4.3125 0.535156 -4.289062 0.421875 -4.25 L 0.40625 -4.3125 C 0.695312 -4.457031 0.972656 -4.53125 1.234375 -4.53125 C 1.554688 -4.53125 1.847656 -4.398438 2.109375 -4.140625 C 2.367188 -3.890625 2.59375 -3.53125 2.78125 -3.0625 L 3.65625 -0.921875 C 3.976562 -0.117188 4.3125 0.429688 4.65625 0.734375 C 4.789062 0.859375 4.929688 0.941406 5.078125 0.984375 C 5.234375 1.035156 5.359375 1.0625 5.453125 1.0625 C 5.554688 1.0625 5.65625 1.050781 5.75 1.03125 Z M 1.25 -1.4375 L 2.46875 -1.4375 L 2.046875 -2.546875 C 2.023438 -2.597656 1.992188 -2.671875 1.953125 -2.765625 C 1.921875 -2.867188 1.898438 -2.941406 1.890625 -2.984375 Z M 1.25 -1.4375 "/></g></g></g></g><g fill="#000000" fill-opacity="1"><g transform="translate(5.058765, 6.234687)"><g><path d="M 4.875 -4.125 C 4.78125 -4.125 4.695312 -4.085938 4.625 -4.015625 C 4.550781 -3.941406 4.507812 -3.859375 4.5 -3.765625 L 4.5 -0.6875 C 4.5 -0.414062 4.519531 -0.1875 4.5625 0 L 4.578125 0.078125 L 4.53125 0.078125 L 1.515625 -2.78125 L 1.515625 -0.421875 C 1.515625 -0.316406 1.546875 -0.226562 1.609375 -0.15625 C 1.679688 -0.09375 1.769531 -0.0625 1.875 -0.0625 L 1.984375 -0.0625 L 1.984375 0 L 0.171875 0 L 0.171875 -0.0625 L 0.28125 -0.0625 C 0.382812 -0.0625 0.472656 -0.09375 0.546875 -0.15625 C 0.617188 -0.226562 0.65625 -0.316406 0.65625 -0.421875 L 0.65625 -3.515625 C 0.65625 -3.785156 0.640625 -4.003906 0.609375 -4.171875 L 0.59375 -4.265625 L 0.640625 -4.265625 L 3.65625 -1.390625 L 3.65625 -3.75 C 3.65625 -3.851562 3.617188 -3.941406 3.546875 -4.015625 C 3.472656 -4.085938 3.382812 -4.125 3.28125 -4.125 L 3.1875 -4.125 L 3.1875 -4.171875 L 4.984375 -4.171875 L 4.984375 -4.125 Z M 4.875 -4.125 "/></g></g></g><g fill="#000000" fill-opacity="1"><g transform="translate(10.180582, 6.234687)"><g><path d="M 4.40625 -0.0625 L 4.453125 -0.0625 L 4.453125 0 L 2.546875 0 L 2.546875 -0.0625 L 2.609375 -0.0625 C 2.691406 -0.0625 2.753906 -0.0859375 2.796875 -0.140625 C 2.835938 -0.191406 2.859375 -0.238281 2.859375 -0.28125 C 2.859375 -0.332031 2.847656 -0.382812 2.828125 -0.4375 L 2.53125 -1.171875 L 1.140625 -1.171875 L 0.828125 -0.4375 C 0.804688 -0.382812 0.796875 -0.332031 0.796875 -0.28125 C 0.796875 -0.238281 0.816406 -0.191406 0.859375 -0.140625 C 0.898438 -0.0859375 0.96875 -0.0625 1.0625 -0.0625 L 1.109375 -0.0625 L 1.109375 0 L -0.171875 0 L -0.171875 -0.0625 L -0.109375 -0.0625 C -0.015625 -0.0625 0.0703125 -0.0859375 0.15625 -0.140625 C 0.25 -0.203125 0.328125 -0.285156 0.390625 -0.390625 L 1.765625 -3.515625 C 1.953125 -3.910156 2.050781 -4.171875 2.0625 -4.296875 L 2.125 -4.296875 L 3.890625 -0.40625 C 3.953125 -0.289062 4.023438 -0.203125 4.109375 -0.140625 C 4.203125 -0.0859375 4.300781 -0.0625 4.40625 -0.0625 Z M 1.234375 -1.421875 L 2.4375 -1.421875 L 1.859375 -2.890625 Z M 1.234375 -1.421875 "/></g></g></g><g fill="#000000" fill-opacity="1"><g transform="translate(14.44976, 6.234687)"><g><path d="M 0.296875 -0.5625 C 0.296875 -0.84375 0.359375 -1.085938 0.484375 -1.296875 L 0.53125 -1.296875 C 0.53125 -1.253906 0.53125 -1.21875 0.53125 -1.1875 C 0.53125 -0.914062 0.628906 -0.675781 0.828125 -0.46875 C 1.023438 -0.269531 1.296875 -0.171875 1.640625 -0.171875 C 1.898438 -0.171875 2.101562 -0.234375 2.25 -0.359375 C 2.40625 -0.484375 2.484375 -0.644531 2.484375 -0.84375 C 2.484375 -1.070312 2.320312 -1.273438 2 -1.453125 L 0.96875 -2.140625 C 0.757812 -2.265625 0.609375 -2.410156 0.515625 -2.578125 C 0.429688 -2.742188 0.390625 -2.914062 0.390625 -3.09375 C 0.390625 -3.46875 0.503906 -3.753906 0.734375 -3.953125 C 0.972656 -4.160156 1.28125 -4.265625 1.65625 -4.265625 C 1.875 -4.265625 2.144531 -4.242188 2.46875 -4.203125 L 2.84375 -4.203125 L 2.765625 -3.328125 L 2.703125 -3.328125 C 2.703125 -3.535156 2.625 -3.703125 2.46875 -3.828125 C 2.320312 -3.953125 2.117188 -4.015625 1.859375 -4.015625 C 1.546875 -4.015625 1.320312 -3.914062 1.1875 -3.71875 C 1.113281 -3.632812 1.078125 -3.535156 1.078125 -3.421875 C 1.078125 -3.222656 1.21875 -3.046875 1.5 -2.890625 L 2.640625 -2.140625 C 2.992188 -1.929688 3.171875 -1.628906 3.171875 -1.234375 C 3.171875 -0.804688 3.023438 -0.476562 2.734375 -0.25 C 2.453125 -0.03125 2.070312 0.078125 1.59375 0.078125 C 1.320312 0.078125 1.070312 0.046875 0.84375 -0.015625 C 0.613281 -0.078125 0.445312 -0.164062 0.34375 -0.28125 C 0.3125 -0.351562 0.296875 -0.445312 0.296875 -0.5625 Z M 0.296875 -0.5625 "/></g></g></g><g fill="#000000" fill-opacity="1"><g transform="translate(17.89611, 6.234687)"><g/></g></g><g fill="#000000" fill-opacity="1"><g transform="translate(19.386743, 6.234687)"><g><path d="M 5.09375 0.828125 C 5.507812 0.828125 5.84375 0.742188 6.09375 0.578125 L 6.140625 0.625 C 5.796875 1.101562 5.367188 1.367188 4.859375 1.421875 C 4.753906 1.429688 4.660156 1.4375 4.578125 1.4375 C 4.503906 1.4375 4.414062 1.429688 4.3125 1.421875 C 4.21875 1.421875 4.078125 1.394531 3.890625 1.34375 C 3.703125 1.300781 3.539062 1.253906 3.40625 1.203125 C 3.269531 1.148438 3.109375 1.082031 2.921875 1 C 2.742188 0.925781 2.59375 0.859375 2.46875 0.796875 C 2.351562 0.734375 2.210938 0.65625 2.046875 0.5625 C 1.878906 0.476562 1.734375 0.40625 1.609375 0.34375 C 1.484375 0.289062 1.363281 0.242188 1.25 0.203125 C 0.925781 0.0664062 0.59375 0 0.25 0 L 0.25 -0.0625 L 0.328125 -0.0625 C 0.429688 -0.0625 0.519531 -0.0976562 0.59375 -0.171875 C 0.664062 -0.242188 0.703125 -0.332031 0.703125 -0.4375 L 0.703125 -3.75 C 0.703125 -3.851562 0.664062 -3.941406 0.59375 -4.015625 C 0.519531 -4.085938 0.429688 -4.125 0.328125 -4.125 L 0.25 -4.125 L 0.25 -4.171875 L 2.0625 -4.171875 L 2.0625 -4.125 L 2 -4.125 C 1.84375 -4.125 1.726562 -4.0625 1.65625 -3.9375 C 1.625 -3.875 1.609375 -3.8125 1.609375 -3.75 L 1.609375 -0.28125 C 1.609375 -0.144531 1.632812 -0.0507812 1.6875 0 C 1.738281 0.0390625 1.796875 0.0703125 1.859375 0.09375 C 3.347656 0.582031 4.425781 0.828125 5.09375 0.828125 Z M 5.09375 0.828125 "/></g></g></g><g fill="#000000" fill-opacity="1"><g transform="translate(21.93275, 6.234687)"><g><path d="M 4.71875 -4.125 L 4.609375 -4.125 C 4.523438 -4.125 4.453125 -4.09375 4.390625 -4.03125 C 4.328125 -3.976562 4.296875 -3.914062 4.296875 -3.84375 L 4.296875 -1.515625 C 4.296875 -1.023438 4.144531 -0.632812 3.84375 -0.34375 C 3.539062 -0.0625 3.117188 0.078125 2.578125 0.078125 C 1.953125 0.078125 1.472656 -0.0625 1.140625 -0.34375 C 0.804688 -0.625 0.640625 -1.007812 0.640625 -1.5 L 0.640625 -3.8125 C 0.640625 -3.90625 0.609375 -3.976562 0.546875 -4.03125 C 0.484375 -4.09375 0.410156 -4.125 0.328125 -4.125 L 0.234375 -4.125 L 0.234375 -4.171875 L 1.953125 -4.171875 L 1.953125 -4.125 L 1.84375 -4.125 C 1.757812 -4.125 1.6875 -4.09375 1.625 -4.03125 C 1.570312 -3.976562 1.539062 -3.910156 1.53125 -3.828125 L 1.53125 -1.546875 C 1.53125 -1.128906 1.632812 -0.796875 1.84375 -0.546875 C 2.050781 -0.296875 2.332031 -0.171875 2.6875 -0.171875 C 3.050781 -0.171875 3.335938 -0.285156 3.546875 -0.515625 C 3.765625 -0.753906 3.875 -1.070312 3.875 -1.46875 L 3.875 -3.828125 C 3.875 -3.910156 3.84375 -3.976562 3.78125 -4.03125 C 3.71875 -4.09375 3.644531 -4.125 3.5625 -4.125 L 3.46875 -4.125 L 3.46875 -4.171875 L 4.71875 -4.171875 Z M 4.71875 -4.125 "/></g></g></g><g fill="#000000" fill-opacity="1"><g transform="translate(26.827995, 6.234687)"><g><path d="M 2.546875 -0.0625 C 2.640625 -0.0625 2.707031 -0.0976562 2.75 -0.171875 C 2.78125 -0.222656 2.796875 -0.265625 2.796875 -0.296875 C 2.796875 -0.335938 2.78125 -0.378906 2.75 -0.421875 L 1.921875 -1.71875 L 1.046875 -0.4375 C 0.972656 -0.3125 0.992188 -0.207031 1.109375 -0.125 C 1.148438 -0.0820312 1.195312 -0.0625 1.25 -0.0625 L 1.328125 -0.0625 L 1.328125 0 L -0.140625 0 L -0.140625 -0.0625 L -0.0625 -0.0625 C 0.164062 -0.0625 0.363281 -0.171875 0.53125 -0.390625 L 1.703125 -2.0625 L 0.609375 -3.765625 C 0.535156 -3.867188 0.441406 -3.953125 0.328125 -4.015625 C 0.222656 -4.085938 0.113281 -4.125 0 -4.125 L -0.078125 -4.125 L -0.078125 -4.171875 L 1.953125 -4.171875 L 1.953125 -4.125 L 1.875 -4.125 C 1.789062 -4.125 1.722656 -4.082031 1.671875 -4 C 1.640625 -3.957031 1.625 -3.914062 1.625 -3.875 C 1.625 -3.832031 1.632812 -3.789062 1.65625 -3.75 L 2.40625 -2.609375 L 3.140625 -3.75 C 3.160156 -3.789062 3.171875 -3.832031 3.171875 -3.875 C 3.171875 -3.914062 3.160156 -3.957031 3.140625 -4 C 3.085938 -4.082031 3.019531 -4.125 2.9375 -4.125 L 2.859375 -4.125 L 2.859375 -4.171875 L 4.328125 -4.171875 L 4.328125 -4.125 L 4.234375 -4.125 C 4.117188 -4.125 4.007812 -4.085938 3.90625 -4.015625 C 3.800781 -3.953125 3.710938 -3.867188 3.640625 -3.765625 L 2.625 -2.265625 L 3.828125 -0.40625 C 3.890625 -0.300781 3.972656 -0.21875 4.078125 -0.15625 C 4.191406 -0.09375 4.304688 -0.0625 4.421875 -0.0625 L 4.515625 -0.0625 L 4.515625 0 L 2.484375 0 L 2.484375 -0.0625 Z M 2.546875 -0.0625 "/></g></g></g><g fill="#000000" fill-opacity="1"><g transform="translate(31.174689, 6.234687)"><g><path d="M 4.375 -4.125 L 4.296875 -4.125 C 4.179688 -4.125 4.066406 -4.085938 3.953125 -4.015625 C 3.847656 -3.953125 3.765625 -3.867188 3.703125 -3.765625 L 2.53125 -1.890625 L 2.53125 -0.4375 C 2.53125 -0.332031 2.566406 -0.242188 2.640625 -0.171875 C 2.710938 -0.0976562 2.800781 -0.0625 2.90625 -0.0625 L 2.984375 -0.0625 L 2.984375 0 L 1.171875 0 L 1.171875 -0.0625 L 1.25 -0.0625 C 1.351562 -0.0625 1.441406 -0.0976562 1.515625 -0.171875 C 1.585938 -0.242188 1.625 -0.332031 1.625 -0.4375 L 1.625 -1.90625 L 0.484375 -3.78125 C 0.429688 -3.875 0.347656 -3.953125 0.234375 -4.015625 C 0.128906 -4.085938 0.0195312 -4.125 -0.09375 -4.125 L -0.1875 -4.125 L -0.1875 -4.171875 L 1.796875 -4.171875 L 1.796875 -4.125 L 1.71875 -4.125 C 1.625 -4.125 1.554688 -4.082031 1.515625 -4 C 1.484375 -3.957031 1.46875 -3.914062 1.46875 -3.875 C 1.46875 -3.832031 1.476562 -3.789062 1.5 -3.75 L 2.359375 -2.203125 L 3.234375 -3.75 C 3.265625 -3.789062 3.28125 -3.832031 3.28125 -3.875 C 3.28125 -3.914062 3.265625 -3.957031 3.234375 -4 C 3.179688 -4.082031 3.113281 -4.125 3.03125 -4.125 L 2.953125 -4.125 L 2.953125 -4.171875 L 4.375 -4.171875 Z M 4.375 -4.125 "/></g></g></g><g clip-path="url(#d8b2b62656)"><g fill="#000000" fill-opacity="1"><g transform="translate(35.431941, 6.234687)"><g><path d="M 6.4375 -5.578125 C 6.625 -5.617188 6.773438 -5.640625 6.890625 -5.640625 C 7.003906 -5.640625 7.09375 -5.640625 7.15625 -5.640625 L 7.15625 -5.578125 C 6.632812 -5.546875 6.21875 -5.304688 5.90625 -4.859375 C 5.75 -4.628906 5.617188 -4.359375 5.515625 -4.046875 L 4.390625 -0.5625 C 4.328125 -0.34375 4.296875 -0.140625 4.296875 0.046875 C 4.296875 0.0664062 4.296875 0.0859375 4.296875 0.109375 L 4.234375 0.109375 L 2.9375 -2.765625 L 1.875 -0.25 C 1.769531 0.0195312 1.613281 0.273438 1.40625 0.515625 C 1.175781 0.773438 0.90625 0.945312 0.59375 1.03125 C 0.519531 1.0625 0.441406 1.078125 0.359375 1.078125 C 0.273438 1.078125 0.179688 1.0625 0.078125 1.03125 L 0.09375 0.96875 C 0.238281 0.96875 0.378906 0.929688 0.515625 0.859375 C 0.648438 0.785156 0.769531 0.695312 0.875 0.59375 C 0.976562 0.488281 1.078125 0.367188 1.171875 0.234375 C 1.328125 0.015625 1.457031 -0.222656 1.5625 -0.484375 L 0.359375 -3.765625 C 0.304688 -3.890625 0.234375 -3.976562 0.140625 -4.03125 C 0.046875 -4.09375 -0.0507812 -4.125 -0.15625 -4.125 L -0.203125 -4.125 L -0.203125 -4.171875 L 1.625 -4.171875 L 1.625 -4.125 L 1.5625 -4.125 C 1.476562 -4.125 1.414062 -4.09375 1.375 -4.03125 C 1.332031 -3.976562 1.3125 -3.925781 1.3125 -3.875 C 1.3125 -3.832031 1.320312 -3.789062 1.34375 -3.75 L 2.078125 -1.671875 L 3.15625 -4.28125 L 3.203125 -4.265625 L 4.390625 -1.640625 L 5.078125 -4.046875 C 5.179688 -4.398438 5.335938 -4.707031 5.546875 -4.96875 C 5.796875 -5.28125 6.09375 -5.484375 6.4375 -5.578125 Z M 6.4375 -5.578125 "/></g></g></g></g><g fill="#000000" fill-opacity="1"><g transform="translate(41.066547, 6.234687)"><g><path d="M 2.625 -4.265625 C 3.363281 -4.265625 3.945312 -4.066406 4.375 -3.671875 C 4.8125 -3.285156 5.03125 -2.757812 5.03125 -2.09375 C 5.03125 -1.425781 4.8125 -0.894531 4.375 -0.5 C 3.945312 -0.113281 3.363281 0.078125 2.625 0.078125 C 1.882812 0.078125 1.296875 -0.113281 0.859375 -0.5 C 0.429688 -0.894531 0.21875 -1.425781 0.21875 -2.09375 C 0.21875 -2.53125 0.316406 -2.910156 0.515625 -3.234375 C 0.710938 -3.566406 0.988281 -3.820312 1.34375 -4 C 1.707031 -4.175781 2.132812 -4.265625 2.625 -4.265625 Z M 1.578125 -0.6875 C 1.835938 -0.34375 2.1875 -0.171875 2.625 -0.171875 C 3.0625 -0.171875 3.40625 -0.34375 3.65625 -0.6875 C 3.914062 -1.03125 4.046875 -1.5 4.046875 -2.09375 C 4.046875 -2.476562 3.988281 -2.816406 3.875 -3.109375 C 3.757812 -3.398438 3.59375 -3.625 3.375 -3.78125 C 3.164062 -3.9375 2.914062 -4.015625 2.625 -4.015625 C 2.1875 -4.015625 1.835938 -3.84375 1.578125 -3.5 C 1.328125 -3.15625 1.203125 -2.6875 1.203125 -2.09375 C 1.203125 -1.5 1.328125 -1.03125 1.578125 -0.6875 Z M 1.578125 -0.6875 "/></g></g></g><g fill="#000000" fill-opacity="1"><g transform="translate(46.188372, 6.234687)"><g><path d="M 1.890625 -3.921875 L 1.640625 -3.921875 C 1.628906 -3.921875 1.625 -3.921875 1.625 -3.921875 L 1.625 -0.4375 C 1.625 -0.289062 1.6875 -0.179688 1.8125 -0.109375 C 1.875 -0.078125 1.9375 -0.0625 2 -0.0625 L 2.078125 -0.0625 L 2.078125 0 L 0.265625 0 L 0.265625 -0.0625 L 0.34375 -0.0625 C 0.488281 -0.0625 0.597656 -0.125 0.671875 -0.25 C 0.703125 -0.300781 0.722656 -0.363281 0.734375 -0.4375 L 0.734375 -3.75 C 0.722656 -3.84375 0.679688 -3.925781 0.609375 -4 C 0.535156 -4.082031 0.445312 -4.125 0.34375 -4.125 L 0.265625 -4.125 L 0.265625 -4.171875 L 2.3125 -4.171875 C 2.695312 -4.171875 3.023438 -4.085938 3.296875 -3.921875 C 3.429688 -3.835938 3.535156 -3.722656 3.609375 -3.578125 C 3.691406 -3.429688 3.734375 -3.257812 3.734375 -3.0625 C 3.734375 -2.875 3.703125 -2.703125 3.640625 -2.546875 C 3.578125 -2.390625 3.46875 -2.25 3.3125 -2.125 C 3.15625 -2.007812 2.96875 -1.941406 2.75 -1.921875 C 2.988281 -1.835938 3.191406 -1.660156 3.359375 -1.390625 C 3.796875 -0.703125 4.117188 -0.289062 4.328125 -0.15625 C 4.429688 -0.09375 4.554688 -0.0625 4.703125 -0.0625 L 4.703125 0 L 4.125 0 C 3.78125 0 3.492188 -0.046875 3.265625 -0.140625 C 3.046875 -0.234375 2.863281 -0.394531 2.71875 -0.625 C 2.644531 -0.738281 2.550781 -0.910156 2.4375 -1.140625 C 2.332031 -1.378906 2.257812 -1.546875 2.21875 -1.640625 C 2.113281 -1.878906 1.984375 -2.015625 1.828125 -2.046875 L 1.828125 -2.09375 L 2 -2.09375 C 2.1875 -2.09375 2.347656 -2.144531 2.484375 -2.25 C 2.617188 -2.363281 2.707031 -2.539062 2.75 -2.78125 C 2.769531 -2.863281 2.78125 -2.929688 2.78125 -2.984375 C 2.78125 -3.304688 2.710938 -3.539062 2.578125 -3.6875 C 2.453125 -3.832031 2.285156 -3.910156 2.078125 -3.921875 C 2.035156 -3.921875 1.972656 -3.921875 1.890625 -3.921875 Z M 1.890625 -3.921875 "/></g></g></g><g fill="#000000" fill-opacity="1"><g transform="translate(50.564876, 6.234687)"><g><path d="M 0.328125 -0.0625 C 0.429688 -0.0625 0.519531 -0.0976562 0.59375 -0.171875 C 0.664062 -0.242188 0.703125 -0.332031 0.703125 -0.4375 L 0.703125 -3.75 C 0.703125 -3.84375 0.664062 -3.925781 0.59375 -4 C 0.519531 -4.082031 0.429688 -4.125 0.328125 -4.125 L 0.25 -4.125 L 0.25 -4.171875 L 2.0625 -4.171875 L 2.0625 -4.125 L 1.984375 -4.125 C 1.878906 -4.125 1.789062 -4.082031 1.71875 -4 C 1.644531 -3.925781 1.609375 -3.84375 1.609375 -3.75 L 1.609375 -0.25 L 2.390625 -0.25 C 2.679688 -0.25 2.925781 -0.332031 3.125 -0.5 C 3.320312 -0.675781 3.46875 -0.914062 3.5625 -1.21875 L 3.609375 -1.21875 L 3.34375 0 L 0.25 0 L 0.25 -0.0625 Z M 0.328125 -0.0625 "/></g></g></g><g fill="#000000" fill-opacity="1"><g transform="translate(54.202028, 6.234687)"><g><path d="M 2.421875 -4.171875 C 3.117188 -4.171875 3.671875 -3.984375 4.078125 -3.609375 C 4.492188 -3.242188 4.703125 -2.738281 4.703125 -2.09375 C 4.703125 -1.445312 4.492188 -0.9375 4.078125 -0.5625 C 3.671875 -0.1875 3.117188 0 2.421875 0 L 0.25 0 L 0.25 -0.0625 L 0.328125 -0.0625 C 0.429688 -0.0625 0.519531 -0.0976562 0.59375 -0.171875 C 0.664062 -0.242188 0.703125 -0.332031 0.703125 -0.4375 L 0.703125 -3.78125 C 0.691406 -3.875 0.648438 -3.953125 0.578125 -4.015625 C 0.515625 -4.085938 0.429688 -4.125 0.328125 -4.125 L 0.25 -4.125 L 0.25 -4.171875 Z M 2.34375 -0.25 C 2.625 -0.25 2.867188 -0.320312 3.078125 -0.46875 C 3.285156 -0.625 3.445312 -0.835938 3.5625 -1.109375 C 3.675781 -1.390625 3.734375 -1.71875 3.734375 -2.09375 C 3.734375 -2.65625 3.609375 -3.097656 3.359375 -3.421875 C 3.109375 -3.753906 2.769531 -3.921875 2.34375 -3.921875 L 1.609375 -3.921875 L 1.609375 -0.25 Z M 2.34375 -0.25 "/></g></g></g></g></g></g></svg>